<?xml version="1.0" standalone="no"?>
<!DOCTYPE svg PUBLIC "-//W3C//DTD SVG 20010904//EN"
 "http://www.w3.org/TR/2001/REC-SVG-20010904/DTD/svg10.dtd">
<svg version="1.0" xmlns="http://www.w3.org/2000/svg"
 width="1280.000000pt" height="1279.000000pt" viewBox="0 0 1280.000000 1279.000000"
 preserveAspectRatio="xMidYMid meet">
<metadata>
Created by potrace 1.15, written by Peter Selinger 2001-2017
</metadata>
<g transform="translate(0.000000,1279.000000) scale(0.100000,-0.100000)"
fill="#000000" stroke="none">
<path d="M6025 12783 c-16 -2 -140 -15 -275 -28 -372 -38 -608 -79 -930 -160
-1623 -410 -3058 -1474 -3909 -2900 -595 -997 -903 -2124 -905 -3320 -1 -257
2 -309 37 -635 52 -485 91 -709 188 -1052 361 -1290 1059 -2364 2104 -3239
811 -679 1880 -1171 2930 -1348 453 -76 794 -104 1175 -98 602 11 902 44 1390
153 1462 325 2805 1197 3707 2405 999 1338 1423 2984 1207 4689 -63 501 -195
1006 -391 1500 -779 1959 -2413 3377 -4453 3864 -493 118 -1040 178 -1589 175
-141 -1 -269 -4 -286 -6z m745 -628 c230 -15 356 -29 578 -65 788 -130 1569
-434 2232 -868 644 -421 1217 -993 1643 -1638 407 -618 707 -1348 848 -2063
48 -245 109 -876 109 -1126 0 -197 0 -199 -19 -180 -75 76 -167 312 -281 720
-173 619 -236 788 -377 999 -100 150 -171 215 -307 281 -134 65 -271 116 -400
150 -128 33 -521 101 -666 116 -63 6 -124 16 -135 22 -11 5 -59 41 -106 78
-103 82 -120 89 -212 89 -101 1 -151 15 -232 65 -145 90 -157 91 -244 25 -30
-22 -62 -40 -72 -40 -9 0 -37 23 -60 52 -117 139 -206 143 -287 14 -65 -101
-66 -101 -201 -98 -457 10 -445 8 -576 84 -85 50 -127 61 -206 56 -165 -12
-277 -128 -295 -306 -13 -119 39 -266 123 -350 77 -77 242 -139 347 -130 42 3
64 13 111 46 32 23 68 42 80 42 25 0 87 -43 126 -86 14 -16 57 -78 95 -139 76
-122 168 -221 229 -247 22 -10 128 -34 235 -53 107 -20 215 -42 240 -49 68
-20 464 -218 552 -276 109 -72 149 -134 231 -362 113 -311 180 -636 232 -1113
8 -77 28 -234 45 -349 16 -114 30 -248 30 -297 0 -49 7 -135 16 -192 21 -136
24 -443 5 -476 -12 -21 -18 -23 -60 -18 -55 7 -277 90 -419 157 -56 27 -160
87 -231 134 -109 72 -148 106 -257 221 -71 75 -188 190 -259 254 -72 65 -164
157 -205 205 -47 54 -122 123 -199 183 -69 54 -182 147 -252 208 -100 86 -142
115 -191 134 -35 13 -133 56 -218 96 -85 40 -177 78 -205 85 -37 9 -152 10
-455 5 -568 -10 -605 -3 -834 168 -72 54 -167 121 -211 150 -72 47 -83 59
-113 117 -105 209 -36 502 135 576 76 32 257 65 403 73 179 10 236 28 301 91
54 52 79 119 79 211 0 51 -5 63 -45 122 -49 71 -59 106 -75 246 -14 124 -28
154 -109 232 -63 60 -70 71 -81 125 -9 45 -10 81 -1 157 19 165 15 211 -24
307 -19 46 -35 97 -35 112 0 16 18 64 40 108 80 159 60 192 -250 395 -179 117
-194 135 -244 281 -60 179 -81 211 -230 343 -58 51 -122 118 -142 149 -54 81
-99 203 -155 422 -81 312 -113 381 -263 564 -75 90 -93 107 -129 117 -57 15
-116 5 -187 -32 l-60 -31 -92 22 c-117 28 -278 37 -333 18 -48 -16 -78 -58
-95 -130 -7 -29 -21 -63 -32 -75 -11 -12 -64 -39 -117 -59 -160 -62 -218 -97
-426 -259 -110 -86 -247 -184 -305 -218 -83 -48 -127 -82 -210 -166 -294 -295
-385 -457 -441 -778 -26 -153 -30 -420 -12 -738 17 -276 40 -375 129 -544 98
-185 117 -210 289 -391 160 -169 239 -272 257 -337 14 -50 3 -137 -29 -231
-33 -97 -39 -107 -208 -297 -171 -193 -269 -314 -294 -363 -36 -73 -89 -218
-105 -292 -10 -41 -23 -82 -30 -92 -6 -9 -73 -54 -148 -101 -182 -114 -284
-192 -396 -307 -126 -128 -189 -225 -266 -405 -35 -82 -89 -204 -120 -269 -31
-66 -74 -171 -95 -235 -22 -64 -87 -241 -145 -395 -58 -153 -149 -416 -202
-585 -53 -168 -109 -343 -123 -388 -14 -46 -28 -83 -31 -83 -30 1 -235 392
-357 680 -112 263 -241 658 -302 925 -64 278 -99 521 -136 940 -21 238 -25
322 -20 470 54 1584 630 2944 1699 4010 710 708 1519 1183 2486 1458 640 183
1302 254 1960 212z m4435 -4084 c22 -15 69 -62 105 -106 36 -43 99 -116 141
-161 124 -133 191 -294 315 -749 91 -336 121 -440 151 -520 40 -108 115 -264
179 -372 48 -80 59 -108 62 -153 4 -60 -29 -410 -54 -560 -67 -412 -203 -890
-358 -1255 -49 -118 -62 -142 -69 -135 -3 3 -39 124 -81 270 -42 146 -92 312
-111 370 -18 58 -76 238 -129 400 -52 162 -104 331 -115 375 -11 44 -48 172
-81 285 -34 113 -114 387 -180 610 -127 434 -181 608 -228 735 -16 44 -33 105
-37 135 -13 105 -73 306 -137 465 -77 189 -103 261 -117 333 -6 29 -11 55 -11
57 0 11 84 13 385 8 l330 -5 40 -27z m-2042 -4807 c18 -9 50 -29 72 -44 156
-107 1053 -443 1419 -532 72 -17 132 -33 134 -34 30 -20 -309 -375 -590 -620
-508 -442 -1055 -771 -1703 -1027 -255 -100 -475 -162 -475 -133 0 6 -11 126
-25 266 -29 296 -31 450 -9 820 8 146 19 441 24 655 5 215 9 391 9 393 1 1 6
2 13 2 6 0 57 21 112 47 110 51 179 64 242 43 22 -7 95 -44 164 -81 69 -37
147 -73 173 -80 97 -24 166 24 251 171 101 176 118 190 189 154z"/>
</g>
</svg>
