<svg width="512" height="512" viewBox="0 0 512 512" fill="none" xmlns="http://www.w3.org/2000/svg">
<path d="M170 82V100.5C170 107.956 177.044 114 184.5 114C191.956 114 199 107.956 199 100.5V82M170 82V42.5C170 35.0442 177.044 29 184.5 29C191.956 29 199 35.0442 199 42.5V82M170 82H100C90.0589 82 82 90.0589 82 100V411C82 420.941 90.0589 429 100 429H411C420.941 429 429 420.941 429 411V100C429 90.0589 420.941 82 411 82H342M199 82H313M313 82V100.5C313 107.956 320.044 114 327.5 114C334.956 114 342 107.956 342 100.5V82M313 82V42.5C313 35.0442 320.044 29 327.5 29C334.956 29 342 35.0442 342 42.5V82" stroke="black" stroke-width="24"/>
<mask id="mask0_1321_101" style="mask-type:alpha" maskUnits="userSpaceOnUse" x="70" y="17" width="371" height="424">
<path d="M170 42.5C170 35.0442 177.044 29 184.5 29C191.956 29 199 35.0442 199 42.5V82V100.5C199 107.956 191.956 114 184.5 114C177.044 114 170 107.956 170 100.5V82V42.5Z" fill="#D9D9D9"/>
<path d="M313 42.5C313 35.0442 320.044 29 327.5 29C334.956 29 342 35.0442 342 42.5V82V100.5C342 107.956 334.956 114 327.5 114C320.044 114 313 107.956 313 100.5V82V42.5Z" fill="#D9D9D9"/>
<path d="M429 411V100C429 90.0589 420.941 82 411 82H342V100.5C342 107.956 334.956 114 327.5 114C320.044 114 313 107.956 313 100.5V82H199V100.5C199 107.956 191.956 114 184.5 114C177.044 114 170 107.956 170 100.5V82H100C90.0589 82 82 90.0589 82 100V411C82 420.941 90.0589 429 100 429H411C420.941 429 429 420.941 429 411Z" fill="#D9D9D9"/>
<path d="M170 82V100.5C170 107.956 177.044 114 184.5 114C191.956 114 199 107.956 199 100.5V82M170 82V42.5C170 35.0442 177.044 29 184.5 29C191.956 29 199 35.0442 199 42.5V82M170 82H100C90.0589 82 82 90.0589 82 100V411C82 420.941 90.0589 429 100 429H411C420.941 429 429 420.941 429 411V100C429 90.0589 420.941 82 411 82H342M199 82H313M313 82V100.5C313 107.956 320.044 114 327.5 114C334.956 114 342 107.956 342 100.5V82M313 82V42.5C313 35.0442 320.044 29 327.5 29C334.956 29 342 35.0442 342 42.5V82" stroke="black" stroke-width="24"/>
</mask>
<g mask="url(#mask0_1321_101)">
<rect x="142" y="147" width="85" height="85" rx="18" stroke="black" stroke-width="24"/>
<rect x="142" y="280" width="85" height="85" rx="18" stroke="black" stroke-width="24"/>
<rect x="285" y="147" width="85" height="85" rx="18" stroke="black" stroke-width="24"/>
<path d="M300.169 308.342C306.695 294.947 328.945 299.747 328.945 308.342H329.055C329.055 299.747 351.305 294.947 357.831 308.342C367.317 327.809 343.46 344.763 329.202 354.896L329.055 355H328.945L328.798 354.896C314.54 344.763 290.683 327.809 300.169 308.342Z" fill="#DA2B4A" stroke="#DA2B4A" stroke-width="24"/>
<path d="M300.169 308.342C306.695 294.947 328.945 299.747 328.945 308.342H329.055C329.055 299.747 351.305 294.947 357.831 308.342C367.317 327.809 343.46 344.763 329.202 354.896L329.055 355H328.945L328.798 354.896C314.54 344.763 290.683 327.809 300.169 308.342Z" fill="#DA2B4A" stroke="#DA2B4A" stroke-width="24"/>
</g>
</svg>
